<?xml version="1.0" encoding="UTF-8"?>
<svg width="31px" height="19px" viewBox="0 0 31 19" version="1.1" xmlns="http://www.w3.org/2000/svg" xmlns:xlink="http://www.w3.org/1999/xlink">
    <!-- Generator: Sketch 47.1 (45422) - http://www.bohemiancoding.com/sketch -->
    <title>Fill 1</title>
    <desc>Created with Sketch.</desc>
    <defs></defs>
    <g id="Symbols" stroke="none" stroke-width="1" fill="none" fill-rule="evenodd">
        <g id="Bottom-Nav-Bar-Desktop" transform="translate(-101.000000, -23.000000)" fill="#000000">
            <g id="back-Arrow">
                <path d="M130.187925,31.1247519 L105.50876,31.1247519 L111.397423,25.2489516 C111.913584,24.734737 111.913584,23.9001609 111.397423,23.3859463 C110.881548,22.8713512 110.045145,22.8713512 109.530128,23.3859463 L101.386906,31.5108408 C100.871031,32.0250554 100.871031,32.8596316 101.386906,33.3738461 L109.530128,41.4991212 C109.787827,41.7566089 110.125992,41.885115 110.463775,41.885115 C110.801559,41.885115 111.139628,41.7566089 111.397423,41.4991212 C111.913584,40.9845261 111.913584,40.1503304 111.397423,39.6357354 L105.50876,33.75984 L130.187925,33.75984 C130.917167,33.75984 131.508551,33.1698154 131.508551,32.4423435 C131.508551,31.7147765 130.917167,31.1247519 130.187925,31.1247519 Z" id="Fill-1"></path>
            </g>
        </g>
    </g>
</svg>